<svg xmlns="http://www.w3.org/2000/svg" viewBox="0 0 1011.93 1214.99"><defs><style>.cls-1,.cls-3{fill:#00a79d;}.cls-2,.cls-4{fill:none;stroke:#00a79d;}.cls-2,.cls-3,.cls-4{stroke-miterlimit:10;}.cls-2,.cls-3{stroke-width:2px;}.cls-3{stroke:#72cddb;}.cls-4{stroke-width:5px;}</style></defs><title>Artboard 8</title><g id="Layer_3" data-name="Layer 3"><polygon class="cls-1" points="658.39 134.53 583.67 154.13 406.46 93.07 465.03 63.64 658.39 134.53"/><polygon class="cls-2" points="445.46 171.5 381.58 192.7 390.9 161.69 455.4 138.42 445.46 171.5"/><polygon class="cls-1" points="640.74 238.33 566.02 257.93 388.81 196.87 447.38 167.44 640.74 238.33"/><polygon class="cls-1" points="446.38 168.44 457.36 135.38 652.36 205.69 641.38 238.75 446.38 168.44"/><path class="cls-2" d="M669.72,927.76s.63,28.39,42.57,15.43"/><polygon class="cls-1" points="867.44 879.2 824.62 862.43 668.25 926.92 711.07 943.7 867.44 879.2"/><path class="cls-2" d="M727.62,1068.06s-44.64-80.68-8.48-110.6"/><polygon class="cls-1" points="878.28 891.82 888.79 1006.58 728.39 1072.74 717.88 957.97 878.28 891.82"/><rect class="cls-1" x="787.78" y="831.25" width="15.8" height="172.19" transform="translate(251.02 2002.68) rotate(-112.41)"/><rect class="cls-1" x="707.38" y="945.67" width="17.56" height="7.04" rx="2.38" ry="2.38" transform="translate(248.61 2042.46) rotate(-119.81)"/><rect class="cls-1" x="864.15" y="881.3" width="17.56" height="6.53" rx="2.38" ry="2.38" transform="translate(539.39 2081.73) rotate(-119.81)"/><path class="cls-1" d="M315.31,671.59h0L316,150l-29,40,9,477.11S235.43,789.2,205.25,795.39c0,0-12.9,10.81-58.3,5l-61.4,84.85s-8.27,5.14,0,26.12,32,30.89,32,30.89l25.25,10.57s20.47,2.07,23-8.93l97-132.28s12.93-14.33,4.5-35.2l-3.44-7.74s10.86-7.47,15.92-30.6c0,0,22.05-40,28.81-49.29l4.35-.83,2.85-5.22-.44-3.2Z"/><path class="cls-3" d="M329.28,743.32c0,8.78-5.93,15.9-13.25,15.9s-13.25-7.12-13.25-15.9S316,712.55,316,712.55,329.28,734.54,329.28,743.32Z"/><path class="cls-4" d="M184.92,749.49c7.87-10.77,22.79-14.3,38.48-10.63a41.55,41.55,0,0,1,5.53-10.31,39,39,0,0,1,18.8-14.13l37.93-42.61c-.65-1.68-.75-3.13-.06-4.07s4.79-6.69,7.13-5l23.18,16.95c2.35,1.71-1.71,7.47-2.41,8.42s-2.55.94-4.35.83l-28.81,49.29a39,39,0,0,1-7.76,22.21,41.55,41.55,0,0,1-8.15,8.4c8.25,13.84,9.41,29.13,1.54,39.89a26.63,26.63,0,0,1-2.6,3,5.78,5.78,0,0,1-.84,1.67l-94.31,129a5.78,5.78,0,0,1-1.82,1.62,12,12,0,0,1-1.63,3.1c-7.87,10.76-32.39,6.22-54.77-10.15S75.85,898.66,83.71,887.9a12,12,0,0,1,2.46-2.49,5.78,5.78,0,0,1,1-2.22l94.31-129a5.78,5.78,0,0,1,1.33-1.31A26.63,26.63,0,0,1,184.92,749.49Z"/><circle class="cls-3" cx="276.25" cy="190.2" r="16.4"/><circle class="cls-3" cx="287.62" cy="181.93" r="16.4"/><circle class="cls-3" cx="284.45" cy="214.72" r="8.2"/><circle class="cls-3" cx="292.65" cy="206.53" r="8.2"/><circle class="cls-3" cx="302.13" cy="169.39" r="8.2"/><circle class="cls-3" cx="234.68" cy="177.59" r="8.2"/><circle class="cls-3" cx="218.28" cy="217.28" r="8.2"/><circle class="cls-3" cx="300.85" cy="158.4" r="8.2"/><circle class="cls-3" cx="316.63" cy="161.19" r="8.2"/><circle class="cls-3" cx="316.63" cy="177.59" r="8.2"/><circle class="cls-3" cx="316.63" cy="236.24" r="10.76"/><polygon class="cls-4" points="383.12 1000.58 383.52 1001.52 362.13 1061.12 346.77 1024.91 351.71 1012.25 211.75 1064.24 168.96 1132.19 363.67 1064.76 387.49 998.96 383.12 1000.58"/><polygon class="cls-4" points="153.49 1095.69 196.27 1027.74 372.02 962.46 348.19 1028.26 153.49 1095.69"/><polygon class="cls-4" points="348.19 1028.26 362.75 1065.15 167.21 1134.21 152.65 1097.32 348.19 1028.26"/><line class="cls-4" x1="366.17" y1="978.6" x2="383.52" y2="1001.52"/><polygon class="cls-4" points="666.4 682.8 667.28 683.11 694.43 733.87 660.65 722.16 655.12 711.11 604.87 837.22 624.63 907.5 697.83 735.05 667.97 678.87 666.4 682.8"/><polygon class="cls-4" points="590.57 895.69 570.82 825.41 633.91 667.06 663.78 723.24 590.57 895.69"/><polygon class="cls-4" points="663.78 723.24 697.54 735.9 624.92 909.91 591.16 897.25 663.78 723.24"/><line class="cls-4" x1="641.24" y1="680.84" x2="667.28" y2="683.11"/><polygon class="cls-4" points="628.36 613.9 629.24 614.21 656.39 664.97 622.61 653.26 617.08 642.21 566.83 768.32 586.59 838.6 659.79 666.15 629.93 609.97 628.36 613.9"/><polygon class="cls-4" points="552.53 826.79 532.77 756.51 595.87 598.16 625.74 654.34 552.53 826.79"/><polygon class="cls-4" points="625.74 654.34 659.5 667 586.88 841.01 553.12 828.35 625.74 654.34"/><line class="cls-4" x1="603.2" y1="611.94" x2="629.24" y2="614.21"/></g><g id="Layer_5" data-name="Layer 5"><path class="cls-4" d="M478.14,1071.07,444.08,970.15,333.51,453.28s132,53.54,144.63,82c35.27,79.64-6.52,190.32,21.82,373.36,2.28,14.74,43.38,41,43.38,41v84L533,1071.07Z"/><path class="cls-1" d="M532.35,918.94s-68.42-9.48-88.26,51.21l7.46,22.1s18.07-71.57,85.36-60.83Z"/><path class="cls-1" d="M572.1,949.33c-3.35-22.76-40.7-44.52-72.15-40.68a2.71,2.71,0,0,0-1.58,4.59c7.08,8,82.53,44.24,27.61,137.79-40.42-5.16-47.85,20-47.85,20l-25.62,52c3.71,13.31,48,0,48,0a57.85,57.85,0,0,0,10.11-5.18c11.67-6.15,26.84-20.94,44.65-50.5,8.4-13.93,8.39-81.65,6.95-96.56a2.68,2.68,0,0,1,4.43-1.45l51.46,43.74c2.26,1.94,4.76-.38,3.42-3C621.53,1010.09,572.6,952.73,572.1,949.33Z"/><path class="cls-1" d="M790.51,655.33s-35.75,9.44-55.19,52.78l22.12,22.2s-17.93-38.62,41.83-69.11Z"/><path class="cls-1" d="M913.32,679.59s-48.87-18.3-51.13-20.89c-15.11-17.35-58.3-15.49-82.69,4.72a2.71,2.71,0,0,0,1.15,4.71c10.26,2.88,73.1-12.84,113,96.81-36.81,17.49-44.84,47-44.84,47l26.07,38c10.31,9.2,20.88-6.28,20.88-6.28a57.85,57.85,0,0,0,5.71-9.82c6.5-11.48,11.28-32.12,10.31-66.62-.46-16.26-37-73.25-46.29-85a2.68,2.68,0,0,1,3-3.61l43.12,6a2.68,2.68,0,0,0,1.86-4.93Z"/><path class="cls-4" d="M854.07,810l-83.31-66.36-373-374.47s140-26.54,166-9.45c72.8,47.82,97.66,163.48,220.66,302,9.9,11.15,58.65,10.91,58.65,10.91l45.53,70.61,11.61,37.08Z"/></g></svg>