<svg id="Layer_1" data-name="Layer 1" xmlns="http://www.w3.org/2000/svg" viewBox="0 0 444.48 405.05"><defs><style>.cls-1{fill:none;stroke:#8ed4d9;stroke-miterlimit:10;stroke-width:3px;}</style></defs><title>Artboard 2</title><path class="cls-1" d="M207.12,68.63A139.56,139.56,0,1,0,346.68,208.19,139.56,139.56,0,0,0,207.12,68.63Zm15.22,240.91H212v-50.6h10.3Zm67.13-36.24A59.71,59.71,0,0,1,284,287a9.13,9.13,0,0,1,.74,3.57v19h-10.3V290.92a3.49,3.49,0,0,0-.38-.4H240.65v-10.3h35.29A49.52,49.52,0,0,0,281,255.14a49.28,49.28,0,0,0-73.16-40v0l-.51.26h0A59.59,59.59,0,1,1,229,124.09,59.86,59.86,0,0,1,236.38,136l-9.32,4.37A48.78,48.78,0,0,0,213,122.6a49.29,49.29,0,1,0-28.63,88,49,49,0,0,0,18.54-4.42,59.57,59.57,0,0,1,86.57,67.15Zm-51.66-105v10.3H196.58V168.3Z"/></svg>