<svg id="Layer_1" data-name="Layer 1" xmlns="http://www.w3.org/2000/svg" xmlns:xlink="http://www.w3.org/1999/xlink" viewBox="0 0 1200 400"><defs><style>.cls-1,.cls-4{fill:none;}.cls-2{clip-path:url(#clip-path);}.cls-3{fill:#191949;stroke:#fff;}.cls-3,.cls-4{stroke-miterlimit:10;}.cls-4{stroke:#f6ed48;stroke-width:6px;}.cls-5{fill:#f6ed48;}</style><clipPath id="clip-path"><rect class="cls-1" width="1200" height="400"/></clipPath></defs><title>Artboard 11</title><g class="cls-2"><rect class="cls-3" width="1200" height="400"/><path class="cls-4" d="M1010,280.85c-15.62,11.85-50.49,33.58-92.76,31.09l41.45-194.54,61,13,8.1-38-61-13,5.51-25.88a66.52,66.52,0,0,0,57.3-52.15,66.39,66.39,0,0,0-51.07-78.67,66.41,66.41,0,0,0-78.71,51,66.39,66.39,0,0,0,34.22,72.68l-5.3,24.88L865,57.71l-8.1,38,63.77,13.59-41.25,193.6c-39.13-17.24-57.12-53.19-62.67-66.57l30.44-17-79.55-34.11-15.81,87.39,30.84-17.26c11.06,24.56,42.41,78,109.78,92.4,63.89,13.61,116.54-17.52,140.16-35.21l19.64,27.56,23-86.45-86.45-2.52ZM959,14.47a27.54,27.54,0,0,1-21.12-32.64,27.48,27.48,0,0,1,32.57-21.1A27.47,27.47,0,0,1,991.61-6.72,27.53,27.53,0,0,1,959,14.47Z"/><rect class="cls-1" width="1200" height="400"/><path class="cls-5" d="M332.44,435.89c120.24-36.31,188.44-163.61,152.14-283.81S321-36.38,200.77-.06,12.34,163.51,48.65,283.74,212.24,472.19,332.44,435.89Zm-4.78-15.83a209.36,209.36,0,0,1-80.87,8l2.74-62.79a142.11,142.11,0,0,0,100.25-24.81l37.17,50.88A209.16,209.16,0,0,1,327.65,420.06Zm53.88-281.75,57.58-42.16a210.58,210.58,0,0,1,37.46,144.23l-66.89-5.15a140.44,140.44,0,0,0-5.56-52.42A142.27,142.27,0,0,0,381.53,138.31Zm-176-122.57a211.78,211.78,0,0,1,68.71-8.86l-2,74.79a142.35,142.35,0,0,0-91.54,29.59l-38.52-63.9A209.41,209.41,0,0,1,205.54,15.73Zm25.79,87.76c66.46-20.07,136.89,17.66,157,84.1a126.09,126.09,0,0,1-84.14,157c-66.48,20.08-136.87-17.68-156.95-84.17A126,126,0,0,1,231.33,103.5ZM64.44,279a209.85,209.85,0,0,1-8.59-74l70.37,2.89a141.36,141.36,0,0,0,25.83,99.24L99.82,347.32A210.35,210.35,0,0,1,64.44,279Z"/></g></svg>