<svg id="Layer_1" data-name="Layer 1" xmlns="http://www.w3.org/2000/svg" xmlns:xlink="http://www.w3.org/1999/xlink" viewBox="0 0 491.08 368.5"><defs><style>.cls-1,.cls-5{fill:none;}.cls-2{clip-path:url(#clip-path);}.cls-3{fill:#191949;stroke:#fff;}.cls-3,.cls-5{stroke-miterlimit:10;}.cls-4{fill:#f6ed48;}.cls-5{stroke:#f6ed48;stroke-width:6px;}</style><clipPath id="clip-path"><rect class="cls-1" width="491.08" height="368.5"/></clipPath></defs><title>Artboard 12</title><g class="cls-2"><rect class="cls-3" width="491.08" height="368.5"/><path class="cls-4" d="M99,178.85A126.11,126.11,0,1,0-58.19,94.59,126.23,126.23,0,0,0,99,178.85Zm-2.65-8.77a116,116,0,0,1-44.79,4.43l1.52-34.77A78.7,78.7,0,0,0,108.58,126l20.59,28.18A115.84,115.84,0,0,1,96.33,170.09ZM126.17,14,158.06-9.31a116.63,116.63,0,0,1,20.75,79.88l-37-2.85a77.78,77.78,0,0,0-3.08-29A78.8,78.8,0,0,0,126.17,14ZM28.7-53.85a117.29,117.29,0,0,1,38.05-4.91L65.64-17.33A78.84,78.84,0,0,0,14.94-.94L-6.39-36.33A116,116,0,0,1,28.7-53.85ZM43-5.24A69.74,69.74,0,1,1-3.62,81.67,69.82,69.82,0,0,1,43-5.24ZM-49.44,91.94a116.23,116.23,0,0,1-4.76-41l39,1.6A78.92,78.92,0,0,0-12.4,84.32,78.23,78.23,0,0,0-.92,107.51L-29.85,129.8A116.5,116.5,0,0,1-49.44,91.94Z"/><path class="cls-5" d="M434.14,291.61c-15.62,11.85-50.49,33.58-92.76,31.09l41.45-194.54,61,13,8.1-38-61-13,5.51-25.88a66.52,66.52,0,0,0,57.3-52.15,66.39,66.39,0,0,0-51.07-78.67,66.41,66.41,0,0,0-78.71,51,66.39,66.39,0,0,0,34.22,72.68l-5.3,24.88L289.11,68.47l-8.1,38,63.77,13.59-41.25,193.6c-39.13-17.24-57.12-53.19-62.67-66.57l30.44-17L191.77,196,176,283.38l30.84-17.26c11.06,24.56,42.41,78,109.78,92.4,63.89,13.61,116.54-17.52,140.16-35.21l19.64,27.56,23-86.45L413,261.91Zm-51-266.38A27.54,27.54,0,0,1,362-7.41a27.48,27.48,0,0,1,32.57-21.1A27.47,27.47,0,0,1,415.7,4,27.53,27.53,0,0,1,383.12,25.23Z"/></g></svg>