<svg xmlns="http://www.w3.org/2000/svg" xmlns:xlink="http://www.w3.org/1999/xlink" viewBox="0 0 612 792"><defs><style>.cls-1,.cls-12,.cls-13,.cls-8{fill:none;}.cls-2{isolation:isolate;}.cls-11,.cls-3{fill:#cdd5e5;}.cls-10,.cls-3{mix-blend-mode:overlay;}.cls-4{clip-path:url(#clip-path);}.cls-5{fill:#76d9cd;}.cls-13,.cls-6,.cls-9{mix-blend-mode:multiply;}.cls-7{fill:#7ba0b2;}.cls-13,.cls-8{stroke:#3059a8;}.cls-12,.cls-13,.cls-8{stroke-miterlimit:10;}.cls-9{fill:#6e9caa;}.cls-12{stroke:#cdd5e5;}.cls-14{fill:#072c2d;}</style><clipPath id="clip-path"><rect class="cls-1" width="610.65" height="791.36"/></clipPath></defs><title>Artboard 1</title><g class="cls-2"><g id="Layer_1" data-name="Layer 1"><path class="cls-3" d="M403.61,468.78s19.18,64.94,81.69,52.53a2,2,0,0,1,1.38,3.76c-19.17,10.57-62.8,24-107.73-35.5h0C379,489.58,401.77,494.64,403.61,468.78Z"/><path class="cls-3" d="M210.62,468.58s-19.18,64.94-81.69,52.53a2,2,0,0,0-1.38,3.76c19.17,10.57,62.8,24,107.73-35.5h0C235.2,489.38,212.47,494.43,210.62,468.58Z"/><g class="cls-4"><rect class="cls-5" x="-16" y="-35.41" width="641" height="888"/><g class="cls-6"><path class="cls-7" d="M196.51,288.57c-6.73.65-15.48,12.63-5.29,12.31,2.22-.07,11.65,4.81,14.7,8,5.9,6.2,4.29,9.32,13.9,18.39,7.87,7.42,11.78-10.09,2.89-22.36C215.2,294.56,203.71,287.87,196.51,288.57Z"/><path class="cls-8" d="M197.4,287.91c-6.73.65-15.48,12.63-5.29,12.31,2.22-.07,11.65,4.81,14.7,8,5.9,6.2,4.29,9.32,13.9,18.39,7.87,7.42,11.78-10.09,2.89-22.36C216.09,293.91,204.6,287.22,197.4,287.91Z"/><path class="cls-8" d="M197.83,286.09c-6.73.65-15.48,12.63-5.29,12.31,2.22-.07,11.65,4.81,14.7,8,5.9,6.2,4.29,9.32,13.9,18.39,7.87,7.42,11.78-10.09,2.89-22.36C216.51,292.08,205,285.39,197.83,286.09Z"/><path class="cls-8" d="M200.42,286.09c-6.73.65-15.48,12.63-5.29,12.31,2.22-.07,11.65,4.81,14.7,8,5.9,6.2,4.29,9.32,13.9,18.39,7.87,7.42,11.78-10.09,2.89-22.36C219.1,292.08,207.61,285.39,200.42,286.09Z"/><path class="cls-8" d="M197.63,290.29c-6.73.65-16.51,15.46-6.32,15.14,2.22-.07,11.65,4.81,14.7,8,5.9,6.2,12.36,12.26,15.45,25.11,3.23,13.39,10.23-16.81,1.33-29.08C215.28,299.11,204.82,289.6,197.63,290.29Z"/><path class="cls-8" d="M197.63,290.29c-6.69.92-18.28,15.33-8.08,15,2.22-.07,12.29,3.91,15.34,7.12,5.9,6.2,11,12.08,17,30.74,3.27,10.31,11.42-19,2.53-31.23C218.61,300.2,203.59,289.47,197.63,290.29Z"/><path class="cls-8" d="M195.82,290.31c-6.73.65-15.48,12.63-5.29,12.31,2.22-.07,11.65,4.81,14.7,8,5.9,6.2,9.78,21.84,17.19,37.15,4.71,9.74,8.49-28.85-.4-41.12C214.5,296.31,203,289.62,195.82,290.31Z"/><path class="cls-8" d="M195.82,290.31c-6.73.65-15.48,12.63-5.29,12.31,2.22-.07,13.51,7.53,16.56,10.74,5.9,6.2,7,17.43,11.12,30,11,33.55,14.45-16.54,4.78-35.21C215.49,297.77,203,289.62,195.82,290.31Z"/><path class="cls-8" d="M197.63,290.29c-6.73.65-17.29,12.66-7.1,12.34,2.22-.07,13.71,7.17,17.54,11.53,5.66,6.43,4.54,34.59,14.15,43.66,7.87,7.42,12.54-31.15,3.64-43.42C219.08,295.48,204.82,289.6,197.63,290.29Z"/></g><path class="cls-9" d="M368.57,342.13c.84,2.87,8.88,32.88,26.09,37.94C393.48,379,376.67,367.08,368.57,342.13Z"/><path class="cls-9" d="M368.57,347.8c.84,2.87,8.88,32.88,26.09,37.94C393.48,384.72,376.67,372.75,368.57,347.8Z"/><path class="cls-9" d="M369.39,352c.71,2.86,7.59,33.27,24.45,39A79.42,79.42,0,0,1,369.39,352Z"/><path class="cls-9" d="M240.18,337.18c-.84,2.87-8.88,32.88-26.09,37.94C215.27,374.1,232.09,362.13,240.18,337.18Z"/><path class="cls-9" d="M240.18,342.85c-.84,2.87-8.88,32.88-26.09,37.94C215.27,379.77,232.09,367.8,240.18,342.85Z"/><path class="cls-9" d="M239.36,347.08c-.71,2.86-7.59,33.27-24.45,39A79.42,79.42,0,0,0,239.36,347.08Z"/><g class="cls-10"><path class="cls-11" d="M360.29,475.83s36.29,19,37.06-29.32C397.35,446.51,392.42,490.19,360.29,475.83Z"/><path class="cls-11" d="M363.09,480.87s36.29,19,37.06-29.32C400.15,451.56,395.22,495.23,363.09,480.87Z"/><path class="cls-11" d="M366.37,485.52s36.29,19,37.06-29.32C403.42,456.2,398.49,499.87,366.37,485.52Z"/></g><g class="cls-10"><path class="cls-11" d="M253.95,475.62s-36.29,19-37.06-29.32C216.89,446.31,221.82,490,253.95,475.62Z"/><path class="cls-11" d="M251.15,480.67s-36.29,19-37.06-29.32C214.09,451.35,219,495,251.15,480.67Z"/><path class="cls-11" d="M247.87,485.31s-36.29,19-37.06-29.32C210.81,456,215.74,499.67,247.87,485.31Z"/></g><path class="cls-3" d="M347.08,501c.05-2,.08-4.29.08-7,0-71.35-17.74-134.38-40.72-134.38s-41.6,57.84-41.6,129.19c0,2.77,0,5.13.08,7.13q-.08,4-.08,8c0,3.34,0,6.09.12,8.32q-.12,4.84-.12,9.77c0,3.77.05,6.8.15,9.16q-.15,5.43-.15,11c0,4.08.06,7.29.18,9.72q-.17,5.87-.18,11.87C264.84,635,283,441.83,306,441.83s41.16,198.38,41.16,127q0-6.06-.17-12c.11-2.39.17-5.55.17-9.57q0-5.6-.15-11.13c.1-2.32.15-5.3.15-9q0-5-.11-9.91c.08-2.19.11-4.89.11-8.18Q347.16,505,347.08,501ZM306,400.09c4.48,0,8.78,7.54,12.79,19.15-3.87-4.11-8-6.35-12.35-6.35-4.8,0-9.41,2.54-13.71,7.18C296.89,408,301.34,400.09,306,400.09Zm-12.09-1.37C297.72,388.53,301.78,382,306,382c4,0,7.95,6.17,11.63,15.93-3.54-3.36-7.28-5.18-11.18-5.18C302.08,392.75,297.87,394.85,293.91,398.72ZM306,366.9c3.37,0,6.64,4.27,9.76,11.33a15.09,15.09,0,0,0-9.31-3.56c-3.68,0-7.26,1.49-10.66,4.28C299,371.47,302.47,366.9,306,366.9Zm.44,67.59c-5.09,0-10,2.85-14.48,8,4.37-13.34,9.09-22.3,14-22.3,4.77,0,9.33,8.55,13.57,21.45C315.47,437,311.06,434.48,306.44,434.48Z"/><path class="cls-3" d="M307.41,453c-17.69-4.57-25.09,185.88-27,248.45C280,712.14,287.66,721,297.17,721h17.67c9.44,0,17-8.76,16.8-19.41C330.36,640.78,325,457.51,307.41,453Z"/><path class="cls-3" d="M347.53,301.4c0,31.13-18.59,56.36-41.53,56.36s-41.53-25.23-41.53-56.36,18.59,48.46,41.53,48.46S347.53,270.28,347.53,301.4Z"/><path class="cls-3" d="M376.71,248.19c0,31.13-31.66,56.36-70.71,56.36s-70.71-25.23-70.71-56.36,31.66,48.46,70.71,48.46S376.71,217.06,376.71,248.19Z"/><g class="cls-10"><path class="cls-12" d="M333.69,318.43l-23.82,23.81a7.83,7.83,0,0,1-11,.06l-23.55-23.56a7.83,7.83,0,0,1,.06-11l58.41-.31A7.83,7.83,0,0,1,333.69,318.43Z"/><path class="cls-12" d="M330.11,319.36l-20.9,20.89a6.87,6.87,0,0,1-9.69.05l-20.66-20.67a6.87,6.87,0,0,1,.06-9.69l51.25-.27A6.87,6.87,0,0,1,330.11,319.36Z"/><path class="cls-12" d="M326.31,319.39,308.5,337.2a5.85,5.85,0,0,1-8.25,0l-17.61-17.62a5.85,5.85,0,0,1,0-8.25l43.68-.23A5.85,5.85,0,0,1,326.31,319.39Z"/><path class="cls-12" d="M320.79,320.83,307.5,334.11a4.37,4.37,0,0,1-6.16,0L288.21,321a4.37,4.37,0,0,1,0-6.16l32.58-.17A4.37,4.37,0,0,1,320.79,320.83Z"/><path class="cls-12" d="M315.51,322.18l-9,9a3,3,0,0,1-4.17,0l-8.89-8.9a3,3,0,0,1,0-4.17l22.06-.12A3,3,0,0,1,315.51,322.18Z"/></g><path class="cls-13" d="M191.88,352.18s-.22,35.66,21.66,57.49c.34.34,22.49,11.61,4.15,33.36-.6-1.05,21.71-13.48,6.48-35.48a2.91,2.91,0,0,0-2.87-1.2C216.52,407.12,202.23,404.59,191.88,352.18Z"/><path class="cls-13" d="M186.65,371.1s-.18,29.43,17.88,47.44c.28.28,18.56,9.58,3.42,27.52-.5-.87,17.91-11.12,5.34-29.27a2.4,2.4,0,0,0-2.37-1C207,416.44,195.19,414.35,186.65,371.1Z"/><g class="cls-6"><path class="cls-8" d="M424.42,348.72s.22,35.66-21.66,57.49c-.34.34-22.49,11.61-4.15,33.36.6-1.05-21.71-13.48-6.48-35.48a2.91,2.91,0,0,1,2.87-1.2C399.78,403.66,414.07,401.13,424.42,348.72Z"/><path class="cls-8" d="M429.64,367.64s.18,29.43-17.88,47.44c-.28.28-18.56,9.58-3.42,27.52.5-.87-17.91-11.12-5.34-29.27a2.4,2.4,0,0,1,2.37-1C409.31,413,421.1,410.89,429.64,367.64Z"/></g><g class="cls-6"><path class="cls-14" d="M184.2,190.58S141,142.31,41.28,214.09C30.64,221.76,26.11,236,30.16,248.92,43.87,292.86,74.4,390.4,76.29,394.21c0,0,62.34-2.11,69.23-31.31,0,0-30.5-51.23,22.64-97.74Z"/><path class="cls-14" d="M427.89,194.32S471.21,146,570.76,217.6c10.63,7.65,15.13,21.86,11.07,34.81-13.8,44-44.5,141.55-46.4,145.36,0,0-62.33-2-69.18-31.2,0,0,30.59-51.28-22.46-97.7Z"/></g><g class="cls-6"><path class="cls-7" d="M408.71,288.57c6.73.65,15.48,12.63,5.29,12.31-2.22-.07-11.65,4.81-14.7,8-5.9,6.2-4.29,9.32-13.9,18.39-7.87,7.42-11.78-10.09-2.89-22.36C390,294.56,401.52,287.87,408.71,288.57Z"/><path class="cls-8" d="M407.82,287.91c6.73.65,15.48,12.63,5.29,12.31-2.22-.07-11.65,4.81-14.7,8-5.9,6.2-4.29,9.32-13.9,18.39-7.87,7.42-11.78-10.09-2.89-22.36C389.13,293.91,400.63,287.22,407.82,287.91Z"/><path class="cls-8" d="M407.4,286.09c6.73.65,15.48,12.63,5.29,12.31-2.22-.07-11.65,4.81-14.7,8-5.9,6.2-4.29,9.32-13.9,18.39-7.87,7.42-11.78-10.09-2.89-22.36C388.71,292.08,400.2,285.39,407.4,286.09Z"/><path class="cls-8" d="M404.81,286.09c6.73.65,15.48,12.63,5.29,12.31-2.22-.07-11.65,4.81-14.7,8-5.9,6.2-4.29,9.32-13.9,18.39-7.87,7.42-11.78-10.09-2.89-22.36C386.12,292.08,397.61,285.39,404.81,286.09Z"/><path class="cls-8" d="M407.6,290.29c6.73.65,16.51,15.46,6.32,15.14-2.22-.07-11.65,4.81-14.7,8-5.9,6.2-12.36,12.26-15.45,25.11-3.23,13.39-10.23-16.81-1.33-29.08C389.94,299.11,400.4,289.6,407.6,290.29Z"/><path class="cls-8" d="M407.6,290.29c6.69.92,18.28,15.33,8.08,15-2.22-.07-12.29,3.91-15.34,7.12-5.9,6.2-11,12.08-17,30.74-3.27,10.31-11.42-19-2.53-31.23C386.62,300.2,401.63,289.47,407.6,290.29Z"/><path class="cls-8" d="M409.41,290.31c6.73.65,15.48,12.63,5.29,12.31-2.22-.07-11.65,4.81-14.7,8-5.9,6.2-9.78,21.84-17.19,37.15-4.71,9.74-8.49-28.85.4-41.12C390.72,296.31,402.21,289.62,409.41,290.31Z"/><path class="cls-8" d="M409.41,290.31c6.73.65,15.48,12.63,5.29,12.31-2.22-.07-13.51,7.53-16.56,10.74-5.9,6.2-7,17.43-11.12,30-11,33.55-14.45-16.54-4.78-35.21C389.74,297.77,402.21,289.62,409.41,290.31Z"/><path class="cls-8" d="M407.6,290.29c6.73.65,17.29,12.66,7.1,12.34-2.22-.07-13.71,7.17-17.54,11.53-5.66,6.43-4.54,34.59-14.15,43.66-7.87,7.42-12.54-31.15-3.64-43.42C386.14,295.48,400.4,289.6,407.6,290.29Z"/></g></g></g></g></svg>